<svg xmlns="http://www.w3.org/2000/svg" width="440.952" height="378.68" viewBox="0 0 440.952 378.68">
  <g id="Group_31" data-name="Group 31" transform="translate(706.452 -579)">
    <g id="Group_7" data-name="Group 7">
      <path id="Subtraction_9" data-name="Subtraction 9" d="M182.924,582.68h-.012A182.325,182.325,0,0,1,122.477,572.4a186.333,186.333,0,0,1-55.731-31.2c-.913-.738-1.773-1.448-2.63-2.168a177.449,177.449,0,0,1-43.767-54.86,182.943,182.943,0,0,1-12.8-32.008A186.051,186.051,0,0,1,6.744,350,181.035,181.035,0,0,1,38.549,286.9L103.322,204h337.63V367.933L329.891,510.08a193.254,193.254,0,0,1-30.974,31.5A186.86,186.86,0,0,1,263.048,564.3a184.16,184.16,0,0,1-80.124,18.38Z" transform="translate(-706.452 375)" fill="#4dcb73" opacity="0.84"/>
      <circle id="Ellipse_3278" data-name="Ellipse 3278" cx="125" cy="125" r="125" transform="translate(-653 655)" fill="#fff"/>
      <g id="Ellipse_3295" data-name="Ellipse 3295" transform="translate(-643 665)" fill="#fff" stroke="#707070" stroke-width="1">
        <circle cx="115" cy="115" r="115" stroke="none"/>
        <circle cx="115" cy="115" r="114.5" fill="none"/>
      </g>
    </g>
    <g id="Group_30" data-name="Group 30">
      <path id="Path_13" data-name="Path 13" d="M12.027-.155,31.076.24A11.037,11.037,0,0,1,41.79,10.954l2.241,108.073-33.044-.685a9.4,9.4,0,0,1-9.127-9.127L-.155,12.027A11.835,11.835,0,0,1,12.027-.155Z" transform="translate(-603.467 832.367) rotate(-135)" fill="#494a4a"/>
      <path id="Path_14" data-name="Path 14" d="M16.217.878,35.266.483A9.986,9.986,0,0,1,45.544,10.762L43.5,109.116a10.22,10.22,0,0,1-9.92,9.92l-23.325.484A8.507,8.507,0,0,1,1.5,110.764L3.519,13.576A13.081,13.081,0,0,1,16.217.878Z" transform="translate(-517.891 745.624) rotate(135)" fill="#494a4a"/>
    </g>
    <path id="blink" data-name="Rectangle 15" d="M15.281,0h0A12.893,12.893,0,0,1,28.174,12.893v91.279A11.938,11.938,0,0,1,16.236,116.11H10.983A10.983,10.983,0,0,1,0,105.127V15.281A15.281,15.281,0,0,1,15.281,0Z" transform="translate(-429.435 800.009) rotate(90)" fill="#494a4a"/>
  </g>
</svg>
